<?xml version="1.0" standalone="no"?>
<!DOCTYPE svg PUBLIC "-//W3C//DTD SVG 20010904//EN"
 "http://www.w3.org/TR/2001/REC-SVG-20010904/DTD/svg10.dtd">
<svg version="1.0" xmlns="http://www.w3.org/2000/svg"
 width="300.000000pt" height="300.000000pt" viewBox="0 0 300.000000 300.000000"
 preserveAspectRatio="xMidYMid meet">
<metadata>
Created by potrace 1.11, written by Peter Selinger 2001-2013
</metadata>
<g transform="translate(0.000000,300.000000) scale(0.100000,-0.100000)"
fill="#000000" stroke="none">
<path d="M952 2598 c-5 -18 -26 -104 -48 -190 l-38 -158 -428 0 -428 0 0 -940
0 -940 1485 0 1485 0 0 940 0 940 -430 0 c-236 0 -429 3 -428 8 2 8 -6 40 -37
147 -13 44 -33 113 -45 153 l-21 72 -529 0 -529 0 -9 -32z m738 -376 c303 -82
527 -315 599 -624 25 -107 22 -279 -7 -388 -81 -305 -329 -539 -639 -604 -68
-15 -249 -15 -323 -1 -155 29 -344 135 -454 256 -91 100 -167 250 -199 392
-21 95 -16 278 11 377 83 309 344 553 646 604 16 3 31 7 33 10 14 14 263 -3
333 -22z m1190 -267 l0 -125 -215 0 -215 0 0 125 0 125 215 0 215 0 0 -125z"/>
<path d="M1352 2015 c-219 -49 -405 -234 -456 -455 -10 -42 -14 -99 -12 -160
6 -163 61 -287 180 -405 244 -242 642 -229 872 29 211 237 202 592 -21 821
-116 119 -239 174 -405 181 -61 2 -118 -2 -158 -11z"/>
</g>
</svg>
